<svg aria-hidden="true" style="position: absolute; width: 0; height: 0; overflow: hidden;" version="1.1" xmlns="http://www.w3.org/2000/svg" xmlns:xlink="http://www.w3.org/1999/xlink">
    <defs>
        <symbol id="icon-trash" viewBox="0 0 32 32">
            <path stroke-linejoin="miter" stroke-linecap="butt" stroke-miterlimit="4" stroke-width="1.7778" d="M6.888 13.538c-0.119-1.549 1.105-2.871 2.659-2.871h12.907c1.553 0 2.778 1.322 2.659 2.871l-0.923 12c-0.107 1.389-1.265 2.462-2.659 2.462h-11.061c-1.393 0-2.552-1.073-2.659-2.462l-0.923-12z"></path>
            <path stroke-linejoin="miter" stroke-linecap="round" stroke-miterlimit="4" stroke-width="1.7778" d="M26 6.667h-20"></path>
            <path stroke-linejoin="miter" stroke-linecap="butt" stroke-miterlimit="4" stroke-width="1.7778" d="M13.333 4c0-0.736 0.597-1.333 1.333-1.333h2.667c0.736 0 1.333 0.597 1.333 1.333v2.667h-5.333v-2.667z"></path>
            <path stroke-linejoin="miter" stroke-linecap="round" stroke-miterlimit="4" stroke-width="1.7778" d="M18.667 16v6.667"></path>
            <path stroke-linejoin="miter" stroke-linecap="round" stroke-miterlimit="4" stroke-width="1.7778" d="M13.333 16v6.667"></path>
        </symbol>

        <symbol id="icon-pencil" viewBox="0 0 34 32">
            <path stroke-linejoin="round" stroke-linecap="round" stroke-miterlimit="4" stroke-width="2.2857" d="M17.538 7.98l-15.252 15.252v7.626h7.626l15.252-15.252M17.538 7.98l5.472-5.472c0.753-0.753 1.13-1.13 1.565-1.271 0.383-0.124 0.795-0.124 1.178 0 0.434 0.141 0.811 0.518 1.563 1.27l3.317 3.317c0.755 0.755 1.133 1.133 1.274 1.568 0.124 0.383 0.124 0.795 0 1.178-0.141 0.435-0.518 0.812-1.272 1.566l-5.471 5.471M17.538 7.98l7.626 7.626"></path>
        </symbol>

        <symbol id="icon-plus" viewBox="0 0 31 32">
            <path d="M13.44 29.301c0 0.509 0.202 0.997 0.562 1.357s0.848 0.562 1.358 0.562 0.998-0.202 1.358-0.562c0.36-0.36 0.562-0.848 0.562-1.357v-11.511h11.52c0.509 0 0.998-0.202 1.358-0.562s0.562-0.848 0.562-1.357c0-0.509-0.202-0.997-0.562-1.357s-0.849-0.562-1.358-0.562h-11.52v-11.511c0-0.509-0.202-0.997-0.562-1.357s-0.848-0.562-1.358-0.562c-0.509 0-0.998 0.202-1.358 0.562s-0.562 0.848-0.562 1.357v11.511h-11.52c-0.509 0-0.998 0.202-1.358 0.562s-0.562 0.848-0.562 1.357c0 0.509 0.202 0.997 0.562 1.357s0.848 0.562 1.358 0.562h11.52v11.511z"></path>
        </symbol>

        <symbol id="icon-moon" viewBox="0 0 32 32">
            <path d="M16.182 0.798c0.311 0.536 0.285 1.204-0.067 1.714-1.067 1.548-1.692 3.423-1.692 5.449 0 5.31 4.305 9.616 9.615 9.616 2.026 0 3.901-0.625 5.449-1.692 0.51-0.352 1.178-0.377 1.714-0.066s0.845 0.903 0.793 1.521c-0.694 8.213-7.577 14.661-15.968 14.661-8.851 0-16.026-7.175-16.026-16.026 0-8.391 6.448-15.275 14.661-15.968 0.618-0.052 1.21 0.256 1.521 0.793zM11.898 3.832c-5.055 1.718-8.693 6.506-8.693 12.142 0 7.081 5.74 12.821 12.821 12.821 5.636 0 10.424-3.638 12.142-8.693-1.296 0.441-2.686 0.68-4.129 0.68-7.081 0-12.821-5.74-12.821-12.821 0-1.444 0.239-2.833 0.68-4.129z"></path>
        </symbol>

        <symbol id="icon-sun" viewBox="0 0 32 32">
            <path d="M17.684 1.684c0-0.93-0.754-1.684-1.684-1.684s-1.684 0.754-1.684 1.684v0.845c0 0.93 0.754 1.684 1.684 1.684s1.684-0.754 1.684-1.684v-0.845zM27.314 7.068c0.657-0.658 0.657-1.724 0-2.381s-1.724-0.658-2.381 0l-0.598 0.598c-0.658 0.658-0.658 1.724 0 2.381s1.724 0.658 2.381 0l0.598-0.598zM7.067 4.686c-0.658-0.658-1.724-0.658-2.381 0s-0.658 1.724 0 2.381l0.598 0.598c0.658 0.658 1.724 0.658 2.381 0s0.658-1.724 0-2.381l-0.598-0.598zM1.684 14.316c-0.93 0-1.684 0.754-1.684 1.684s0.754 1.684 1.684 1.684h0.845c0.93 0 1.684-0.754 1.684-1.684s-0.754-1.684-1.684-1.684h-0.845zM29.471 14.316c-0.93 0-1.684 0.754-1.684 1.684s0.754 1.684 1.684 1.684h0.846c0.93 0 1.684-0.754 1.684-1.684s-0.754-1.684-1.684-1.684h-0.846zM7.665 26.716c0.658-0.658 0.658-1.724 0-2.381s-1.724-0.658-2.381 0l-0.598 0.598c-0.658 0.658-0.658 1.724 0 2.381s1.724 0.657 2.381 0l0.598-0.598zM26.716 24.335c-0.658-0.658-1.724-0.658-2.381 0s-0.658 1.724 0 2.381l0.598 0.598c0.658 0.658 1.724 0.658 2.382 0s0.657-1.724 0-2.381l-0.598-0.598zM17.684 29.471c0-0.93-0.754-1.684-1.684-1.684s-1.684 0.754-1.684 1.684v0.846c0 0.93 0.754 1.684 1.684 1.684s1.684-0.754 1.684-1.684v-0.846zM9.265 16c0-3.72 3.016-6.735 6.735-6.735s6.735 3.016 6.735 6.735c0 3.72-3.016 6.735-6.735 6.735s-6.735-3.016-6.735-6.735zM16 5.897c-5.58 0-10.103 4.523-10.103 10.103s4.523 10.103 10.103 10.103c5.58 0 10.103-4.523 10.103-10.103s-4.523-10.103-10.103-10.103z"></path>
        </symbol>

        <symbol id="icon-arrow" viewBox="0 0 58 32">
            <path stroke-linejoin="round" stroke-linecap="round" stroke-miterlimit="4" stroke-width="6.4" d="M29.637 25.6l-21.563-19.2"></path>
            <path stroke-linejoin="round" stroke-linecap="round" stroke-miterlimit="4" stroke-width="6.4" d="M51.2 6.4l-21.563 19.2"></path>
        </symbol>

        <symbol id="icon-search" viewBox="0 0 31 32">
            <path d="M30.222 29.359l-7.086-7.087h-0.076c2.184-2.575 3.288-5.896 3.080-9.266s-1.71-6.53-4.194-8.818c-2.484-2.288-5.756-3.527-9.132-3.458s-6.595 1.441-8.982 3.829c-2.388 2.388-3.76 5.607-3.829 8.983s1.17 6.648 3.458 9.132 5.447 3.986 8.818 4.194c3.37 0.208 6.69-0.896 9.266-3.080 0 0 0 0.055 0 0.076l7.086 7.087c0.101 0.102 0.222 0.183 0.355 0.239s0.275 0.084 0.419 0.084 0.286-0.029 0.419-0.084c0.133-0.055 0.254-0.137 0.355-0.239 0.112-0.099 0.202-0.22 0.265-0.355s0.098-0.282 0.102-0.431-0.023-0.298-0.078-0.436c-0.056-0.138-0.139-0.264-0.245-0.369zM13.095 24.681c-2.156 0-4.264-0.639-6.057-1.837s-3.19-2.901-4.015-4.893c-0.825-1.992-1.041-4.184-0.62-6.299s1.459-4.057 2.984-5.582c1.525-1.525 3.467-2.563 5.582-2.984s4.307-0.205 6.299 0.62c1.992 0.825 3.695 2.223 4.893 4.015s1.837 3.901 1.837 6.057c0 1.432-0.282 2.849-0.83 4.172s-1.351 2.525-2.363 3.537-2.214 1.815-3.537 2.363c-1.323 0.548-2.74 0.83-4.172 0.83z"></path>
        </symbol>

        <symbol id="icon-check" viewBox="0 0 40 32">
            <path d="M33.843 1.958c0.657-0.578 1.532-0.897 2.44-0.891s1.777 0.338 2.425 0.925c0.648 0.587 1.023 1.383 1.047 2.221s-0.305 1.651-0.919 2.269l-18.62 21.495c-0.32 0.318-0.707 0.574-1.136 0.751s-0.893 0.273-1.364 0.281c-0.47 0.008-0.938-0.072-1.374-0.234s-0.833-0.405-1.166-0.712l-12.348-11.398c-0.344-0.296-0.62-0.652-0.811-1.049s-0.294-0.824-0.302-1.258c-0.008-0.434 0.078-0.865 0.254-1.267s0.438-0.768 0.77-1.075 0.728-0.549 1.164-0.711c0.436-0.162 0.903-0.242 1.373-0.235s0.933 0.103 1.363 0.279c0.429 0.177 0.816 0.431 1.136 0.749l9.772 9.016 16.207-19.062c0.029-0.033 0.060-0.065 0.093-0.095h-0.005z"></path>
        </symbol>

    </defs>
</svg>
